<?xml version="1.0" standalone="no"?>
<!DOCTYPE svg PUBLIC "-//W3C//DTD SVG 20010904//EN"
 "http://www.w3.org/TR/2001/REC-SVG-20010904/DTD/svg10.dtd">
<svg version="1.0" xmlns="http://www.w3.org/2000/svg"
 width="194.000000pt" height="194.000000pt" viewBox="0 0 194.000000 194.000000"
 preserveAspectRatio="xMidYMid meet">
<metadata>
Created by potrace 1.11, written by Peter Selinger 2001-2013
</metadata>
<g transform="translate(0.000000,194.000000) scale(0.100000,-0.100000)"
fill="#000000" stroke="none">
<path d="M0 970 l0 -970 970 0 970 0 0 970 0 970 -970 0 -970 0 0 -970z m1357
649 l383 -221 0 -443 0 -443 -365 -211 c-201 -117 -376 -216 -389 -223 -22 -9
-62 11 -405 208 l-380 219 0 450 0 450 377 217 c207 120 381 217 386 218 5 0
182 -99 393 -221z"/>
<path d="M605 1575 l-350 -203 0 -417 0 -417 345 -200 c190 -110 352 -202 360
-204 8 -2 173 87 365 199 l350 203 0 419 0 418 -350 203 c-192 112 -354 203
-360 203 -5 -1 -167 -92 -360 -204z m229 -399 c45 -19 50 -30 31 -67 -12 -23
-21 -29 -33 -23 -81 34 -127 28 -127 -17 0 -25 13 -33 101 -70 64 -26 90 -66
81 -128 -11 -83 -64 -125 -157 -125 -51 1 -130 29 -144 52 -3 4 6 21 19 38 22
28 24 28 57 15 78 -32 128 -23 128 24 0 28 -14 40 -65 54 -110 30 -154 106
-110 192 33 63 137 89 219 55z m216 -76 l0 -90 90 0 90 0 0 90 0 90 50 0 50 0
0 -220 0 -220 -50 0 -50 0 0 90 0 90 -90 0 -90 0 0 -90 0 -90 -50 0 -50 0 0
220 0 220 50 0 50 0 0 -90z"/>
</g>
</svg>
